<svg width="15" height="15" viewBox="0 0 15 15" fill="none" xmlns="http://www.w3.org/2000/svg">
<path d="M3.34907 6.63102C4.48241 8.85833 6.30833 10.6843 8.53565 11.8176L10.2671 10.0861C10.4875 9.86574 10.7944 9.80278 11.0699 9.88935C11.9514 10.1806 12.8958 10.338 13.8796 10.338C14.0884 10.338 14.2886 10.4209 14.4361 10.5685C14.5837 10.7161 14.6667 10.9163 14.6667 11.125V13.8796C14.6667 14.0884 14.5837 14.2886 14.4361 14.4361C14.2886 14.5837 14.0884 14.6667 13.8796 14.6667C10.3311 14.6667 6.92797 13.257 4.4188 10.7479C1.90964 8.2387 0.5 4.83554 0.5 1.28704C0.5 1.0783 0.58292 0.878116 0.730518 0.730518C0.878116 0.58292 1.0783 0.5 1.28704 0.5H4.04167C4.2504 0.5 4.45059 0.58292 4.59819 0.730518C4.74578 0.878116 4.8287 1.0783 4.8287 1.28704C4.8287 2.27083 4.98611 3.21528 5.27731 4.09676C5.36389 4.37222 5.30093 4.67917 5.08055 4.89954L3.34907 6.63102Z" fill="#788CAB"/>
</svg>
